<?xml version="1.0" encoding="iso-8859-1"?>
<!-- Generator: Adobe Illustrator 23.0.6, SVG Export Plug-In . SVG Version: 6.00 Build 0)  -->
<svg version="1.1" id="Layer_1" xmlns="http://www.w3.org/2000/svg" xmlns:xlink="http://www.w3.org/1999/xlink" x="0px" y="0px"
	 viewBox="0 0 64 64" style="enable-background:new 0 0 64 64;" xml:space="preserve">
<g>
	<path d="M55.52,45.71c-0.01-0.02-0.03-0.04-0.05-0.05c-2.52,0.81-6.32,1.48-11.96,1.5h-0.34c-0.53,0-1.03,0.07-1.48,0.19
		l11.78-0.01l-0.23,0.94l-1.04,4.36c-0.01,0.05-0.02,0.1-0.02,0.15c-0.01,0.02-0.01,0.05-0.01,0.08v2.09
		c-0.31,0.17-0.89,0.43-1.81,0.61c-0.68,0.14-1.49,0.21-2.4,0.21h-6.53c-0.27,0-0.55-0.03-0.81-0.08c1.18,0.8,2.93,1.36,5.53,1.36
		c4.23,0,6.42-1.72,7.37-2.79c0.02,0.08,0.04,0.18,0.04,0.32c0,0.66-1.26,1.62-2.28,2.4c-0.25,0.19-0.5,0.39-0.74,0.58
		c0.08-0.01,0.15-0.03,0.22-0.04c2.11-0.42,2.97-1.19,3.12-1.34c0.19-0.19,0.29-0.45,0.29-0.71v-2.49l0.17-0.71l1.09-4.54l0.28-1.17
		C55.78,46.27,55.71,45.96,55.52,45.71z"/>
</g>
<g>
	<g>
		<path d="M28.001,23.731c-0.063,0-0.127-0.006-0.191-0.019c-2.214-0.43-4.511-0.668-6.826-0.707
			c-0.553-0.01-0.992-0.465-0.983-1.017c0.01-0.553,0.471-0.955,1.017-0.983c2.433,0.041,4.847,0.292,7.174,0.744
			c0.542,0.105,0.896,0.63,0.791,1.172C28.889,23.399,28.47,23.731,28.001,23.731z"/>
	</g>
</g>
<g>
	<g>
		<path d="M14.999,23.328c-0.497,0-0.929-0.37-0.991-0.877c-0.068-0.548,0.32-1.047,0.869-1.115c0.65-0.081,1.334-0.151,2.046-0.206
			c0.563-0.046,1.032,0.37,1.074,0.92c0.042,0.551-0.369,1.031-0.92,1.074c-0.681,0.053-1.333,0.119-1.954,0.196
			C15.082,23.326,15.04,23.328,14.999,23.328z"/>
	</g>
</g>
<g>
	<g>
		<path d="M7.501,25c-0.404,0-0.785-0.247-0.937-0.646C6.37,23.837,6.63,23.26,7.146,23.064c0.055-0.021,1.382-0.519,3.636-1.021
			c0.54-0.122,1.074,0.219,1.193,0.758c0.121,0.539-0.219,1.073-0.758,1.193c-2.101,0.47-3.353,0.937-3.364,0.941
			C7.737,24.979,7.618,25,7.501,25z"/>
	</g>
</g>
<g>
	<g>
		<path d="M57.22,10.14c-0.04-0.01-0.09-0.01-0.13-0.01c-2.6,0-4.87,0.31-6.53,0.63c0.91-0.81,2.29-1.76,4.31-2.62
			c0.29-0.13,0.51-0.39,0.58-0.7s-0.01-0.64-0.22-0.88c-1.19-1.36-4.8-4.31-6.83-5.24C47.96,1.12,47.49,1.01,47,1
			c-0.54,0.01-0.98,0.07-1.38,0.26C34.14,6.57,30.2,13.76,29.1,16.38c-1.31-0.41-3.88-1.03-7.39-1.03c-6,0-12.53,1.19-15.88,2.88
			c-1.21,0.61-2.17,1.63-2.73,2.87C2.37,22.72,0,28.49,0,34.61c0,0.34,0.18,0.66,0.47,0.84c0.28,0.19,0.65,0.21,0.96,0.06
			c0.04-0.02,3.7-1.73,8.33-2.31c-4.67,4.09-6.87,7.21-6.97,7.36c-0.26,0.36-0.24,0.85,0.04,1.2c0.22,0.27,5.41,6.72,10.77,9.4
			c0.45,0.22,1,0.07,1.28-0.34c0.85-1.29,1.73-2.45,2.52-3.43c-0.24,1.52-0.44,3.4-0.44,5.48c0,0.34,0.17,0.67,0.47,0.85
			c0.18,0.11,4.5,2.76,10.96,2.76c1.96,0,3.35-0.21,4.31-0.48h0.01c1.08-0.29,1.63-0.65,1.85-0.82c-0.01-0.09-0.03-0.18-0.05-0.26
			c-0.17-0.65-0.38-1.25-0.65-1.8l-0.54,0.49c-0.05,0.03-0.38,0.26-1.19,0.48c-0.77,0.2-1.96,0.39-3.74,0.39
			c-4.69,0-8.2-1.56-9.43-2.2c0.09-4.68,1.24-8.19,1.25-8.23c0.15-0.44-0.03-0.92-0.43-1.16c-0.4-0.25-0.91-0.18-1.23,0.15
			c-0.11,0.11-2.46,2.52-4.83,5.91c-3.8-2.18-7.52-6.32-8.84-7.85c1.03-1.3,3.79-4.56,8.48-8.32c0.34-0.26,0.46-0.71,0.32-1.11
			S13.16,31,12.74,31c-4.51,0-8.59,1.29-10.69,2.09c0.34-5.14,2.25-9.78,2.88-11.17c0.37-0.84,0.99-1.49,1.8-1.9
			c3.05-1.55,9.35-2.67,14.98-2.67c4.7,0,7.56,1.21,7.59,1.22c0.26,0.11,0.56,0.11,0.82-0.01c0.26-0.13,0.46-0.35,0.54-0.63
			c0.02-0.09,2.7-8.8,15.8-14.86c0.11-0.05,0.28-0.08,0.5-0.07c0.21,0.01,0.42,0.05,0.6,0.14c1.36,0.62,3.73,2.44,5.2,3.77
			c-4.58,2.32-5.69,5.04-5.74,5.16c-0.14,0.36-0.06,0.77,0.21,1.05c0.27,0.29,0.67,0.39,1.04,0.26c0.04-0.01,3.77-1.23,8.67-1.25
			c0.39,0.17,2.76,1.59,3.03,10.34c-3.04-1.44-6.5-1.88-6.67-1.9c-0.45-0.06-0.89,0.21-1.06,0.63c-0.16,0.43-0.02,0.91,0.35,1.18
			c3.46,2.47,4.55,5.12,4.78,5.79c-0.1,0.6-0.51,2.6-1.84,4.77c-0.5,0.83-1.15,1.69-1.97,2.51v0.74c0,0.53,0.16,1.05,0.46,1.55
			l0.13-0.12c0.51-0.44,0.98-0.9,1.4-1.36c3.35-3.71,3.81-7.87,3.84-8.07c0.01-0.12,0-0.23-0.03-0.34
			c-0.03-0.12-0.55-2.12-2.66-4.49c1.25,0.38,2.62,0.92,3.76,1.65c0.3,0.2,0.7,0.22,1.02,0.04C61.8,24.88,62,24.54,62,24.17
			C62,11.45,58.02,10.25,57.22,10.14z M38.22,51.12c0,0.19,0.01,0.45,0.05,0.74l5.24-4.7h-0.34C39.98,47.16,38.22,49.5,38.22,51.12z
			"/>
	</g>
</g>
<g>
	<g>
		<g>
			<g>
				<path d="M49.215,53.691c-0.543,0-0.987-0.434-1-0.978l-0.044-1.999c-0.012-0.553,0.426-1.01,0.978-1.022
					c0.008,0,0.016,0,0.022,0c0.543,0,0.987,0.434,1,0.978l0.044,1.999c0.012,0.553-0.426,1.01-0.978,1.022
					C49.229,53.691,49.222,53.691,49.215,53.691z"/>
			</g>
		</g>
	</g>
	<g>
		<g>
			<g>
				<path d="M43.792,53.73c-0.003,0-0.007,0-0.011,0c-0.552-0.006-0.995-0.458-0.989-1.01l0.02-2c0.006-0.549,0.452-0.99,1-0.99
					c0.003,0,0.007,0,0.011,0c0.552,0.006,0.995,0.458,0.989,1.01l-0.02,2C44.786,53.289,44.34,53.73,43.792,53.73z"/>
			</g>
		</g>
	</g>
</g>
<g>
	<g>
		<path d="M40.2,51.12c0,2.56,2.11,3.96,5.95,3.96c3.84,0,5.51-1.62,6.03-2.29c0.13-0.16,0.19-0.26,0.2-0.28
			c0.18-0.32,0.51-0.53,0.87-0.53c0.33,0,0.72,0.09,1.09,0.3c0.64,0.37,1.2,1.09,1.2,2.31c0,1.64-1.55,2.82-3.05,3.97
			c-0.9,0.68-2.12,1.62-2.12,2.16v1.29c0,0.55-0.45,0.99-0.99,0.99H33.87c-0.55,0-0.99-0.44-0.99-0.99v-3.87
			c0-0.77-0.06-1.49-0.17-2.14H32.7c-0.03-0.21-0.07-0.41-0.12-0.61c-0.12-0.47-0.27-0.91-0.45-1.3c-0.08-0.17-0.16-0.33-0.25-0.48
			c-0.28-0.47-0.12-1.08,0.35-1.36c0.47-0.28,1.08-0.12,1.35,0.35c0.1,0.17,0.19,0.34,0.28,0.52c0.27,0.55,0.48,1.15,0.65,1.8
			c0.02,0.08,0.04,0.17,0.05,0.26c0.2,0.89,0.3,1.88,0.3,2.96v2.88h13.53v-0.3c0-1.25,1-2.23,2.15-3.15
			c0.24-0.19,0.49-0.39,0.74-0.58c1.02-0.78,2.28-1.74,2.28-2.4c0-0.14-0.02-0.24-0.04-0.32c-0.95,1.07-3.14,2.79-7.37,2.79
			c-2.6,0-4.35-0.56-5.53-1.36h-0.01c-1.69-1.15-2.2-2.76-2.34-3.84c-0.04-0.29-0.05-0.55-0.05-0.74c0-1.35,1.22-3.19,3.47-3.77
			c0.45-0.12,0.95-0.19,1.48-0.19h0.34c5.64-0.02,9.44-0.69,11.96-1.5c3.53-1.14,4.54-2.59,4.55-3.02
			c-0.05-0.03-0.21-0.14-0.34-0.22l-0.23-0.15c-2.19-1.34-4.49-2.86-5.43-4.53c-0.3-0.5-0.46-1.02-0.46-1.55v-2.58
			c0-1.1-0.08-2.25-1.01-3.17c-0.57-0.58-1.84-0.94-2.24-1.03c-0.26-0.05-0.49-0.21-0.64-0.44c-0.03-0.06-3.45-5.4-9.16-5.97
			c-4.3,2.15-4.36,10.52-4.36,10.61c0,0.55-0.44,0.99-0.99,0.99c-0.2,0-1.72-0.06-3.44-1.62c-0.34,1.47-0.74,4.12-0.74,8.37v3.83
			c0,0.55-0.44,0.99-0.99,0.99S29,45.73,29,45.18v-3.83c0-7.88,1.34-10.65,1.4-10.77c0.15-0.3,0.45-0.51,0.79-0.54
			c0.36-0.03,0.68,0.12,0.89,0.39c0.8,1.07,1.57,1.62,2.15,1.9c0.21-2.79,1.18-9.27,5.7-11.25c0.15-0.06,0.31-0.09,0.47-0.08
			c6.03,0.45,9.78,5.22,10.72,6.57c0.68,0.19,2,0.63,2.84,1.47c1.28,1.28,1.52,2.84,1.57,3.9c0.01,0.26,0.01,0.48,0.01,0.67v2.58
			c0,0.02,0,0.04,0.01,0.07c0.07,0.91,1.73,2.36,4.94,4.33l0.23,0.14c0.21,0.13,0.51,0.34,0.51,0.34C61.74,41.47,62,42,62,42.57
			c0,1.47-1.59,3.73-6.57,5.17c-0.67,0.2-1.4,0.38-2.19,0.54c-2.6,0.53-5.91,0.86-10.07,0.86C41.09,49.14,40.2,50.56,40.2,51.12z"/>
	</g>
</g>
<g>
	<g>
		<path d="M30.99,53.875c-0.752,0-1.5-0.176-2.192-0.523c-1.171-0.588-2.044-1.597-2.459-2.841
			c-0.414-1.245-0.321-2.576,0.263-3.749s1.59-2.048,2.832-2.461c0.528-0.177,1.092,0.108,1.266,0.632
			c0.174,0.524-0.109,1.091-0.633,1.265c-0.734,0.245-1.329,0.762-1.675,1.456c-0.346,0.695-0.401,1.485-0.155,2.225
			s0.765,1.338,1.459,1.687c0.691,0.348,1.479,0.403,2.213,0.16c0.523-0.177,1.09,0.108,1.265,0.632s-0.107,1.09-0.632,1.265
			C32.033,53.791,31.511,53.875,30.99,53.875z"/>
	</g>
</g>
<g>
	<path d="M38,44c-3.955,0-5-2.616-5-4c0-2.243,1.757-4,4-4c3.028,0,6,2.538,6,5.125C43,43.472,39.297,44,38,44z M35,39.991
		C35.012,40.338,35.214,42,38,42c1.362,0,2.867-0.558,3.003-0.894C41,39.891,39.208,38,37,38C35.882,38,35.005,38.874,35,39.991z"/>
</g>
<g>
	<path d="M50.5,39c-1.153,0-2.5-0.857-2.5-3.275C48,31.206,50.985,30,52.75,30c1.853,0,3.25,1.483,3.25,3.45
		C56,36.893,52.439,39,50.5,39z M52.75,32C52.291,32,50,32.18,50,35.725C50,36.341,50.132,37,50.5,37c1.039,0,3.5-1.378,3.5-3.55
		C54,32.583,53.498,32,52.75,32z"/>
</g>
<g>
	<g>
		<circle cx="36.5" cy="39.5" r="1.5"/>
	</g>
</g>
<g>
	<g>
		<path d="M51.484,33c-0.722,0-1.296,0.508-1.449,1.176c-0.015,0.153-0.027,0.311-0.035,0.476C50.079,35.405,50.7,36,51.484,36
			C52.321,36,53,35.328,53,34.5S52.321,33,51.484,33z"/>
	</g>
</g>
<g>
	<g>
		<path d="M44.999,44.498c-0.124,0-0.251-0.023-0.373-0.073c-0.511-0.206-0.759-0.785-0.555-1.296
			c0.108-0.271,1.123-2.662,3.307-3.11c1.409-0.292,2.864,0.308,4.329,1.774c0.391,0.391,0.391,1.023,0,1.414s-1.023,0.391-1.414,0
			c-0.66-0.659-1.635-1.412-2.508-1.23c-0.967,0.194-1.669,1.437-1.858,1.898C45.769,44.263,45.394,44.498,44.999,44.498z"/>
	</g>
</g>
</svg>