<?xml version="1.0" encoding="iso-8859-1"?><!-- Generator: Adobe Illustrator 21.1.0, SVG Export Plug-In . SVG Version: 6.00 Build 0)  --><svg xmlns="http://www.w3.org/2000/svg" xmlns:xlink="http://www.w3.org/1999/xlink" viewBox="0 0 64 64" width="64px" height="64px"><g><path d="M33,26h4c0.552,0,1-0.447,1-1s-0.448-1-1-1h-4c-0.552,0-1,0.447-1,1S32.448,26,33,26z"/><path d="M33,22h10c0.552,0,1-0.447,1-1s-0.448-1-1-1H33c-0.552,0-1,0.447-1,1S32.448,22,33,22z"/><path d="M53,8h-1V7c0-1.654-1.346-3-3-3H29.816C29.402,2.839,28.302,2,27,2H17c-1.302,0-2.402,0.839-2.816,2H12C9.794,4,8,5.794,8,8v47v1c0,2.206,1.794,4,4,4h41c1.654,0,3-1.346,3-3V11C56,9.346,54.654,8,53,8z M16,5c0-0.552,0.449-1,1-1h10c0.551,0,1,0.448,1,1v37.359l-4.818-3.532c-0.707-0.518-1.656-0.518-2.365,0L16,42.36V5z M10,50c0.552,0,1-0.447,1-1v-2c0-0.553-0.448-1-1-1V8c0-1.103,0.897-2,2-2h2v36.36c0,0.758,0.42,1.44,1.096,1.783c0.676,0.342,1.476,0.276,2.087-0.171L22,40.44l4.817,3.532c0.351,0.258,0.765,0.389,1.181,0.389c0.308,0,0.618-0.072,0.906-0.218C29.58,43.801,30,43.118,30,42.36V6h19c0.551,0,1,0.448,1,1v39c-0.552,0-1,0.447-1,1v2c0,0.553,0.448,1,1,1v1c0,0.552-0.449,1-1,1H12c-0.617,0-1.34,0.223-2,0.633V50z M54,57c0,0.552-0.449,1-1,1H12c-1.103,0-2-0.897-2-2c0-1.244,1.389-2,2-2h37c1.654,0,3-1.346,3-3V10h1c0.551,0,1,0.448,1,1V57z"/><path d="M33,30h7c0.552,0,1-0.447,1-1s-0.448-1-1-1h-7c-0.552,0-1,0.447-1,1S32.448,30,33,30z"/><path d="M44,49c0,0.553,0.448,1,1,1s1-0.447,1-1v-2c0-0.553-0.448-1-1-1s-1,0.447-1,1V49z"/><path d="M40,46c-0.552,0-1,0.447-1,1v2c0,0.553,0.448,1,1,1s1-0.447,1-1v-2C41,46.447,40.552,46,40,46z"/><path d="M35,46c-0.552,0-1,0.447-1,1v2c0,0.553,0.448,1,1,1s1-0.447,1-1v-2C36,46.447,35.552,46,35,46z"/><path d="M30,50c0.552,0,1-0.447,1-1v-2c0-0.553-0.448-1-1-1s-1,0.447-1,1v2C29,49.553,29.448,50,30,50z"/><path d="M25,50c0.552,0,1-0.447,1-1v-2c0-0.553-0.448-1-1-1s-1,0.447-1,1v2C24,49.553,24.448,50,25,50z"/><path d="M20,50c0.552,0,1-0.447,1-1v-2c0-0.553-0.448-1-1-1s-1,0.447-1,1v2C19,49.553,19.448,50,20,50z"/><path d="M15,50c0.552,0,1-0.447,1-1v-2c0-0.553-0.448-1-1-1s-1,0.447-1,1v2C14,49.553,14.448,50,15,50z"/></g></svg>