<?xml version="1.0" encoding="iso-8859-1"?><!-- Generator: Adobe Illustrator 21.1.0, SVG Export Plug-In . SVG Version: 6.00 Build 0)  --><svg xmlns="http://www.w3.org/2000/svg" xmlns:xlink="http://www.w3.org/1999/xlink" viewBox="0 0 64 64" width="64px" height="64px"><g><path d="M38.435,11.565C34.846,7.977,30.075,6,25,6s-9.846,1.977-13.435,5.565c-7.408,7.408-7.408,19.461,0,26.869C15.154,42.023,19.925,44,25,44s9.846-1.977,13.435-5.565C45.843,31.026,45.843,18.974,38.435,11.565z M37.021,37.021C33.81,40.231,29.541,42,25,42s-8.81-1.769-12.021-4.979c-6.628-6.628-6.628-17.413,0-24.041C16.19,9.769,20.459,8,25,8s8.81,1.769,12.021,4.979C43.649,19.607,43.649,30.393,37.021,37.021z"/><path d="M31.201,14.724c0.824,0.497,1.592,1.1,2.284,1.791c0.195,0.195,0.451,0.293,0.707,0.293s0.512-0.098,0.708-0.293c0.39-0.391,0.39-1.024,0-1.414c-0.807-0.806-1.703-1.509-2.665-2.09c-0.473-0.287-1.088-0.134-1.373,0.34C30.576,13.823,30.728,14.438,31.201,14.724z"/><path d="M26.375,11.067c-4.191-0.415-8.3,1.059-11.275,4.033c-0.391,0.391-0.391,1.023,0,1.414c0.195,0.195,0.451,0.293,0.707,0.293s0.512-0.098,0.707-0.293c2.549-2.55,6.07-3.812,9.666-3.457c0.552,0.047,1.039-0.348,1.093-0.897C27.327,11.61,26.925,11.121,26.375,11.067z"/><path d="M61.878,54.465L51.536,44.121c-0.991-0.991-2.298-1.472-3.601-1.455c-0.048-0.136-2.769-2.914-2.769-2.914C48.202,35.614,50,30.514,50,25C50,11.215,38.785,0,25,0S0,11.215,0,25s11.215,25,25,25c5.514,0,10.614-1.798,14.752-4.834c0,0,2.776,2.72,2.911,2.768c0,0.022-0.006,0.043-0.006,0.066c0,1.336,0.521,2.592,1.465,3.535l10.343,10.344c0.975,0.975,2.255,1.461,3.535,1.461c1.281,0,2.562-0.487,3.537-1.462l0.343-0.344c0.944-0.944,1.464-2.199,1.464-3.534C63.343,56.664,62.823,55.408,61.878,54.465z M25,48C12.318,48,2,37.683,2,25S12.318,2,25,2s23,10.317,23,23S37.682,48,25,48z M44.122,44.465c-0.389,0.389-0.686,0.84-0.925,1.318l-1.872-1.872c0.924-0.798,1.788-1.662,2.586-2.586l1.876,1.876c-0.475,0.235-0.928,0.528-1.323,0.922L44.122,44.465z M60.464,60.121l-0.343,0.344c-1.17,1.168-3.073,1.168-4.243,0L45.536,50.121c-0.567-0.566-0.879-1.319-0.879-2.121s0.312-1.555,0.88-2.122l0.342-0.343c0.585-0.584,1.353-0.877,2.122-0.877s1.537,0.293,2.122,0.877l10.343,10.344c0.567,0.566,0.879,1.319,0.879,2.121S61.031,59.555,60.464,60.121z"/><path d="M34.192,32.778c-0.391-0.391-1.023-0.391-1.414,0s-0.391,1.023,0,1.414l1.414,1.414c0.195,0.195,0.451,0.293,0.707,0.293s0.512-0.098,0.707-0.293c0.391-0.391,0.391-1.023,0-1.414L34.192,32.778z"/><path d="M15.808,32.778l-1.414,1.414c-0.391,0.391-0.391,1.023,0,1.414c0.195,0.195,0.451,0.293,0.707,0.293s0.512-0.098,0.707-0.293l1.414-1.414c0.391-0.391,0.391-1.023,0-1.414S16.198,32.388,15.808,32.778z"/><path d="M39,24h-2c-0.552,0-1,0.447-1,1s0.448,1,1,1h2c0.552,0,1-0.447,1-1S39.552,24,39,24z"/><path d="M14,25c0-0.553-0.448-1-1-1h-2c-0.552,0-1,0.447-1,1s0.448,1,1,1h2C13.552,26,14,25.553,14,25z"/><path d="M25,36c-0.552,0-1,0.447-1,1v2c0,0.553,0.448,1,1,1s1-0.447,1-1v-2C26,36.447,25.552,36,25,36z"/><path d="M38.278,29.551l-1.841-0.782c-0.509-0.219-1.096,0.021-1.312,0.529c-0.216,0.508,0.021,1.095,0.529,1.311l1.841,0.782c0.128,0.055,0.26,0.08,0.391,0.08c0.389,0,0.759-0.229,0.921-0.609C39.023,30.354,38.787,29.767,38.278,29.551z"/><path d="M20.702,35.125c-0.508-0.214-1.095,0.022-1.311,0.53l-0.781,1.841c-0.216,0.509,0.021,1.096,0.53,1.312c0.127,0.054,0.26,0.079,0.39,0.079c0.389,0,0.759-0.229,0.921-0.609l0.781-1.841C21.447,35.928,21.21,35.341,20.702,35.125z"/><path d="M14.801,29.121c-0.207-0.512-0.788-0.76-1.302-0.553l-1.854,0.749c-0.512,0.206-0.76,0.789-0.553,1.301c0.157,0.39,0.532,0.626,0.928,0.626c0.125,0,0.251-0.023,0.374-0.073l1.854-0.749C14.761,30.216,15.008,29.633,14.801,29.121z"/><path d="M30.422,35.751c-0.207-0.511-0.789-0.759-1.302-0.552c-0.512,0.207-0.76,0.789-0.553,1.302l0.75,1.854c0.157,0.389,0.532,0.625,0.928,0.625c0.125,0,0.251-0.023,0.374-0.073c0.512-0.207,0.76-0.789,0.553-1.302L30.422,35.751z"/></g></svg>